<?xml version="1.0" encoding="UTF-8" standalone="no"?>
<!DOCTYPE svg PUBLIC "-//W3C//DTD SVG 1.1//EN"
 "http://www.w3.org/Graphics/SVG/1.1/DTD/svg11.dtd">
<!-- Generated by graphviz version 2.47.0 (20210316.0004)
 -->
<!-- Title: dependencies Pages: 1 -->
<svg width="1110pt" height="355pt"
 viewBox="0.00 0.00 1110.00 355.00" xmlns="http://www.w3.org/2000/svg" xmlns:xlink="http://www.w3.org/1999/xlink">
<g id="graph0" class="graph" transform="scale(1 1) rotate(0) translate(4 351)">
<title>dependencies</title>
<polygon fill="white" stroke="transparent" points="-4,4 -4,-351 1106,-351 1106,4 -4,4"/>
<text text-anchor="start" x="530.01" y="-42.4" font-family="Times-12" font-weight="bold" font-size="14.00">Legend</text>
<polygon fill="#ffffb3" stroke="transparent" points="317,-10 317,-30 337,-30 337,-10 317,-10"/>
<text text-anchor="start" x="340.63" y="-15.4" font-family="Times-12" font-size="14.00"> &#160;Declarations</text>
<polygon fill="#8dd3c7" stroke="transparent" points="430,-10 430,-30 450,-30 450,-10 430,-10"/>
<text text-anchor="start" x="453.73" y="-15.4" font-family="Times-12" font-size="14.00"> &#160;Module</text>
<polygon fill="#80b1d3" stroke="transparent" points="516,-10 516,-30 536,-30 536,-10 516,-10"/>
<text text-anchor="start" x="539.78" y="-15.4" font-family="Times-12" font-size="14.00"> &#160;Bootstrap</text>
<polygon fill="#fdb462" stroke="transparent" points="613,-10 613,-30 633,-30 633,-10 613,-10"/>
<text text-anchor="start" x="636.67" y="-15.4" font-family="Times-12" font-size="14.00"> &#160;Providers</text>
<polygon fill="#fb8072" stroke="transparent" points="709,-10 709,-30 729,-30 729,-10 709,-10"/>
<text text-anchor="start" x="732.73" y="-15.4" font-family="Times-12" font-size="14.00"> &#160;Exports</text>
<g id="clust7" class="cluster">
<title>cluster_MetaOptionsModule</title>
<polygon fill="none" stroke="black" stroke-dasharray="1,5" points="882,-138 882,-274 1094,-274 1094,-138 882,-138"/>
</g>
<g id="clust12" class="cluster">
<title>cluster_MetaOptionsModule_providers</title>
<polygon fill="none" stroke="black" points="890,-146 890,-198 1086,-198 1086,-146 890,-146"/>
</g>
<g id="clust25" class="cluster">
<title>cluster_UsersModule</title>
<polygon fill="none" stroke="black" stroke-dasharray="1,5" points="718,-70 718,-282 874,-282 874,-70 718,-70"/>
</g>
<g id="clust28" class="cluster">
<title>cluster_UsersModule_exports</title>
<polygon fill="none" stroke="black" points="726,-222 726,-274 836,-274 836,-222 726,-222"/>
</g>
<g id="clust30" class="cluster">
<title>cluster_UsersModule_providers</title>
<polygon fill="none" stroke="black" points="726,-78 726,-130 866,-130 866,-78 726,-78"/>
</g>
<g id="clust1" class="cluster">
<title>cluster_AppModule</title>
<polygon fill="none" stroke="black" stroke-dasharray="1,5" points="278,-138 278,-339 550,-339 550,-138 278,-138"/>
</g>
<g id="clust6" class="cluster">
<title>cluster_AppModule_providers</title>
<polygon fill="none" stroke="black" points="412,-222 412,-274 542,-274 542,-222 412,-222"/>
</g>
<g id="clust3" class="cluster">
<title>cluster_AppModule_imports</title>
<polygon fill="none" stroke="black" points="298,-146 298,-274 404,-274 404,-146 298,-146"/>
</g>
<g id="clust19" class="cluster">
<title>cluster_TagsModule</title>
<polygon fill="none" stroke="black" stroke-dasharray="1,5" points="8,-214 8,-282 270,-282 270,-214 8,-214"/>
</g>
<g id="clust22" class="cluster">
<title>cluster_TagsModule_exports</title>
<polygon fill="none" stroke="black" points="158,-222 158,-274 262,-274 262,-222 158,-222"/>
</g>
<g id="clust24" class="cluster">
<title>cluster_TagsModule_providers</title>
<polygon fill="none" stroke="black" points="16,-222 16,-274 150,-274 150,-222 16,-222"/>
</g>
<g id="clust13" class="cluster">
<title>cluster_PostsModule</title>
<polygon fill="none" stroke="black" stroke-dasharray="1,5" points="558,-138 558,-206 710,-206 710,-138 558,-138"/>
</g>
<g id="clust18" class="cluster">
<title>cluster_PostsModule_providers</title>
<polygon fill="none" stroke="black" points="566,-146 566,-198 702,-198 702,-146 566,-146"/>
</g>
<!-- MetaOptionsModule -->
<g id="node1" class="node">
<title>MetaOptionsModule</title>
<polygon fill="#8dd3c7" stroke="black" points="1038.15,-266 1035.15,-270 1014.15,-270 1011.15,-266 905.85,-266 905.85,-230 1038.15,-230 1038.15,-266"/>
<text text-anchor="middle" x="972" y="-243.8" font-family="Times,serif" font-size="14.00">MetaOptionsModule</text>
</g>
<!-- AppModule -->
<g id="node5" class="node">
<title>AppModule</title>
<polygon fill="#8dd3c7" stroke="black" points="518.66,-331 515.66,-335 494.66,-335 491.66,-331 435.34,-331 435.34,-295 518.66,-295 518.66,-331"/>
<text text-anchor="middle" x="477" y="-308.8" font-family="Times,serif" font-size="14.00">AppModule</text>
</g>
<!-- MetaOptionsModule&#45;&gt;AppModule -->
<g id="edge1" class="edge">
<title>MetaOptionsModule&#45;&gt;AppModule</title>
<path fill="none" stroke="black" d="M972,-266.28C972,-287.32 972,-319 972,-319 972,-319 528.78,-319 528.78,-319"/>
<polygon fill="black" stroke="black" points="528.78,-315.5 518.78,-319 528.78,-322.5 528.78,-315.5"/>
</g>
<!-- PostsModule -->
<g id="node2" class="node">
<title>PostsModule</title>
<polygon fill="#8dd3c7" stroke="black" points="395.61,-266 392.61,-270 371.61,-270 368.61,-266 306.39,-266 306.39,-230 395.61,-230 395.61,-266"/>
<text text-anchor="middle" x="351" y="-243.8" font-family="Times,serif" font-size="14.00">PostsModule</text>
</g>
<!-- PostsModule&#45;&gt;AppModule -->
<g id="edge2" class="edge">
<title>PostsModule&#45;&gt;AppModule</title>
<path fill="none" stroke="black" d="M351,-266.28C351,-287.32 351,-319 351,-319 351,-319 425.04,-319 425.04,-319"/>
<polygon fill="black" stroke="black" points="425.04,-322.5 435.04,-319 425.04,-315.5 425.04,-322.5"/>
</g>
<!-- TagsModule -->
<g id="node3" class="node">
<title>TagsModule</title>
<polygon fill="#8dd3c7" stroke="black" points="392.26,-190 389.26,-194 368.26,-194 365.26,-190 305.74,-190 305.74,-154 392.26,-154 392.26,-190"/>
<text text-anchor="middle" x="349" y="-167.8" font-family="Times,serif" font-size="14.00">TagsModule</text>
</g>
<!-- TagsModule&#45;&gt;PostsModule -->
<g id="edge7" class="edge">
<title>TagsModule&#45;&gt;PostsModule</title>
<path fill="none" stroke="black" d="M335.09,-190.01C335.09,-190.01 335.09,-219.85 335.09,-219.85"/>
<polygon fill="black" stroke="black" points="331.59,-219.85 335.09,-229.85 338.59,-219.85 331.59,-219.85"/>
</g>
<!-- TagsModule&#45;&gt;AppModule -->
<g id="edge3" class="edge">
<title>TagsModule&#45;&gt;AppModule</title>
<path fill="none" stroke="black" d="M392.48,-178C403.41,-178 412.11,-178 412.11,-178 412.11,-178 412.11,-307 412.11,-307 412.11,-307 425.17,-307 425.17,-307"/>
<polygon fill="black" stroke="black" points="425.17,-310.5 435.17,-307 425.17,-303.5 425.17,-310.5"/>
</g>
<!-- TagsService  -->
<g id="node9" class="node">
<title>TagsService </title>
<polygon fill="#fb8072" stroke="black" points="254.19,-266 165.81,-266 165.81,-230 254.19,-230 254.19,-266"/>
<text text-anchor="middle" x="210" y="-243.8" font-family="Times,serif" font-size="14.00">TagsService </text>
</g>
<!-- TagsModule&#45;&gt;TagsService  -->
<g id="edge10" class="edge">
<title>TagsModule&#45;&gt;TagsService </title>
<path fill="none" stroke="black" stroke-dasharray="5,2" d="M305.4,-178C264.64,-178 210,-178 210,-178 210,-178 210,-219.97 210,-219.97"/>
<polygon fill="black" stroke="black" points="206.5,-219.97 210,-229.97 213.5,-219.97 206.5,-219.97"/>
</g>
<!-- UsersModule -->
<g id="node4" class="node">
<title>UsersModule</title>
<polygon fill="#8dd3c7" stroke="black" points="833.92,-190 830.92,-194 809.92,-194 806.92,-190 742.08,-190 742.08,-154 833.92,-154 833.92,-190"/>
<text text-anchor="middle" x="788" y="-167.8" font-family="Times,serif" font-size="14.00">UsersModule</text>
</g>
<!-- UsersModule&#45;&gt;PostsModule -->
<g id="edge8" class="edge">
<title>UsersModule&#45;&gt;PostsModule</title>
<path fill="none" stroke="black" d="M770.75,-190.11C770.75,-199.9 770.75,-210 770.75,-210 770.75,-210 363.74,-210 363.74,-210 363.74,-210 363.74,-219.89 363.74,-219.89"/>
<polygon fill="black" stroke="black" points="360.24,-219.89 363.74,-229.89 367.24,-219.89 360.24,-219.89"/>
</g>
<!-- UsersModule&#45;&gt;AppModule -->
<g id="edge4" class="edge">
<title>UsersModule&#45;&gt;AppModule</title>
<path fill="none" stroke="black" d="M742.1,-172C727.1,-172 714.2,-172 714.2,-172 714.2,-172 714.2,-307 714.2,-307 714.2,-307 528.86,-307 528.86,-307"/>
<polygon fill="black" stroke="black" points="528.86,-303.5 518.86,-307 528.86,-310.5 528.86,-303.5"/>
</g>
<!-- UsersService  -->
<g id="node11" class="node">
<title>UsersService </title>
<polygon fill="#fb8072" stroke="black" points="827.85,-266 734.15,-266 734.15,-230 827.85,-230 827.85,-266"/>
<text text-anchor="middle" x="781" y="-243.8" font-family="Times,serif" font-size="14.00">UsersService </text>
</g>
<!-- UsersModule&#45;&gt;UsersService  -->
<g id="edge12" class="edge">
<title>UsersModule&#45;&gt;UsersService </title>
<path fill="none" stroke="black" stroke-dasharray="5,2" d="M799.21,-190.01C799.21,-190.01 799.21,-219.85 799.21,-219.85"/>
<polygon fill="black" stroke="black" points="795.71,-219.85 799.21,-229.85 802.71,-219.85 795.71,-219.85"/>
</g>
<!-- AppService -->
<g id="node6" class="node">
<title>AppService</title>
<ellipse fill="#fdb462" stroke="black" cx="477" cy="-248" rx="56.74" ry="18"/>
<text text-anchor="middle" x="477" y="-243.8" font-family="Times,serif" font-size="14.00">AppService</text>
</g>
<!-- AppService&#45;&gt;AppModule -->
<g id="edge5" class="edge">
<title>AppService&#45;&gt;AppModule</title>
<path fill="none" stroke="black" d="M477,-266.11C477,-266.11 477,-284.99 477,-284.99"/>
<polygon fill="black" stroke="black" points="473.5,-284.99 477,-294.99 480.5,-284.99 473.5,-284.99"/>
</g>
<!-- MetaOptionsService -->
<g id="node7" class="node">
<title>MetaOptionsService</title>
<ellipse fill="#fdb462" stroke="black" cx="988" cy="-172" rx="90.33" ry="18"/>
<text text-anchor="middle" x="988" y="-167.8" font-family="Times,serif" font-size="14.00">MetaOptionsService</text>
</g>
<!-- MetaOptionsService&#45;&gt;MetaOptionsModule -->
<g id="edge6" class="edge">
<title>MetaOptionsService&#45;&gt;MetaOptionsModule</title>
<path fill="none" stroke="black" d="M972,-190.01C972,-190.01 972,-219.85 972,-219.85"/>
<polygon fill="black" stroke="black" points="968.5,-219.85 972,-229.85 975.5,-219.85 968.5,-219.85"/>
</g>
<!-- PostsService -->
<g id="node8" class="node">
<title>PostsService</title>
<ellipse fill="#fdb462" stroke="black" cx="634" cy="-172" rx="60.27" ry="18"/>
<text text-anchor="middle" x="634" y="-167.8" font-family="Times,serif" font-size="14.00">PostsService</text>
</g>
<!-- PostsService&#45;&gt;PostsModule -->
<g id="edge9" class="edge">
<title>PostsService&#45;&gt;PostsModule</title>
<path fill="none" stroke="black" d="M576.81,-166C508.64,-166 403.83,-166 403.83,-166 403.83,-166 403.83,-248 403.83,-248 403.83,-248 403.01,-248 403.01,-248"/>
<polygon fill="black" stroke="black" points="405.58,-244.5 395.58,-248 405.58,-251.5 405.58,-244.5"/>
</g>
<!-- TagsService -->
<g id="node10" class="node">
<title>TagsService</title>
<ellipse fill="#fdb462" stroke="black" cx="83" cy="-248" rx="58.53" ry="18"/>
<text text-anchor="middle" x="83" y="-243.8" font-family="Times,serif" font-size="14.00">TagsService</text>
</g>
<!-- TagsService&#45;&gt;TagsModule -->
<g id="edge11" class="edge">
<title>TagsService&#45;&gt;TagsModule</title>
<path fill="none" stroke="black" d="M83,-229.8C83,-205.64 83,-166 83,-166 83,-166 295.67,-166 295.67,-166"/>
<polygon fill="black" stroke="black" points="295.67,-169.5 305.67,-166 295.67,-162.5 295.67,-169.5"/>
</g>
<!-- UsersService -->
<g id="node12" class="node">
<title>UsersService</title>
<ellipse fill="#fdb462" stroke="black" cx="796" cy="-104" rx="61.95" ry="18"/>
<text text-anchor="middle" x="796" y="-99.8" font-family="Times,serif" font-size="14.00">UsersService</text>
</g>
<!-- UsersService&#45;&gt;UsersModule -->
<g id="edge13" class="edge">
<title>UsersService&#45;&gt;UsersModule</title>
<path fill="none" stroke="black" d="M788,-121.87C788,-121.87 788,-143.54 788,-143.54"/>
<polygon fill="black" stroke="black" points="784.5,-143.54 788,-153.54 791.5,-143.54 784.5,-143.54"/>
</g>
</g>
</svg>
