<?xml version="1.0" encoding="UTF-8" standalone="no"?>
<!DOCTYPE svg PUBLIC "-//W3C//DTD SVG 1.1//EN"
 "http://www.w3.org/Graphics/SVG/1.1/DTD/svg11.dtd">
<!-- Generated by graphviz version 2.47.0 (20210316.0004)
 -->
<!-- Title: dependencies Pages: 1 -->
<svg width="1253pt" height="363pt"
 viewBox="0.00 0.00 1253.00 363.00" xmlns="http://www.w3.org/2000/svg" xmlns:xlink="http://www.w3.org/1999/xlink">
<g id="graph0" class="graph" transform="scale(1 1) rotate(0) translate(4 359)">
<title>dependencies</title>
<polygon fill="white" stroke="transparent" points="-4,4 -4,-359 1249,-359 1249,4 -4,4"/>
<text text-anchor="start" x="601.51" y="-42.4" font-family="Times-12" font-weight="bold" font-size="14.00">Legend</text>
<polygon fill="#ffffb3" stroke="transparent" points="388.5,-10 388.5,-30 408.5,-30 408.5,-10 388.5,-10"/>
<text text-anchor="start" x="412.13" y="-15.4" font-family="Times-12" font-size="14.00"> &#160;Declarations</text>
<polygon fill="#8dd3c7" stroke="transparent" points="501.5,-10 501.5,-30 521.5,-30 521.5,-10 501.5,-10"/>
<text text-anchor="start" x="525.23" y="-15.4" font-family="Times-12" font-size="14.00"> &#160;Module</text>
<polygon fill="#80b1d3" stroke="transparent" points="587.5,-10 587.5,-30 607.5,-30 607.5,-10 587.5,-10"/>
<text text-anchor="start" x="611.28" y="-15.4" font-family="Times-12" font-size="14.00"> &#160;Bootstrap</text>
<polygon fill="#fdb462" stroke="transparent" points="684.5,-10 684.5,-30 704.5,-30 704.5,-10 684.5,-10"/>
<text text-anchor="start" x="708.17" y="-15.4" font-family="Times-12" font-size="14.00"> &#160;Providers</text>
<polygon fill="#fb8072" stroke="transparent" points="780.5,-10 780.5,-30 800.5,-30 800.5,-10 780.5,-10"/>
<text text-anchor="start" x="804.23" y="-15.4" font-family="Times-12" font-size="14.00"> &#160;Exports</text>
<g id="clust1" class="cluster">
<title>cluster_AppModule</title>
<polygon fill="none" stroke="black" stroke-dasharray="1,5" points="168,-146 168,-347 685,-347 685,-146 168,-146"/>
</g>
<g id="clust6" class="cluster">
<title>cluster_AppModule_providers</title>
<polygon fill="none" stroke="black" points="547,-230 547,-282 677,-282 677,-230 547,-230"/>
</g>
<g id="clust3" class="cluster">
<title>cluster_AppModule_imports</title>
<polygon fill="none" stroke="black" points="176,-154 176,-282 539,-282 539,-154 176,-154"/>
</g>
<g id="clust13" class="cluster">
<title>cluster_PostsModule</title>
<polygon fill="none" stroke="black" stroke-dasharray="1,5" points="8,-146 8,-214 160,-214 160,-146 8,-146"/>
</g>
<g id="clust18" class="cluster">
<title>cluster_PostsModule_providers</title>
<polygon fill="none" stroke="black" points="16,-154 16,-206 152,-206 152,-154 16,-154"/>
</g>
<g id="clust19" class="cluster">
<title>cluster_TagsModule</title>
<polygon fill="none" stroke="black" stroke-dasharray="1,5" points="693,-222 693,-290 955,-290 955,-222 693,-222"/>
</g>
<g id="clust24" class="cluster">
<title>cluster_TagsModule_providers</title>
<polygon fill="none" stroke="black" points="813,-230 813,-282 947,-282 947,-230 813,-230"/>
</g>
<g id="clust22" class="cluster">
<title>cluster_TagsModule_exports</title>
<polygon fill="none" stroke="black" points="701,-230 701,-282 805,-282 805,-230 701,-230"/>
</g>
<g id="clust25" class="cluster">
<title>cluster_UsersModule</title>
<polygon fill="none" stroke="black" stroke-dasharray="1,5" points="963,-222 963,-290 1237,-290 1237,-222 963,-222"/>
</g>
<g id="clust30" class="cluster">
<title>cluster_UsersModule_providers</title>
<polygon fill="none" stroke="black" points="1089,-230 1089,-282 1229,-282 1229,-230 1089,-230"/>
</g>
<g id="clust28" class="cluster">
<title>cluster_UsersModule_exports</title>
<polygon fill="none" stroke="black" points="971,-230 971,-282 1081,-282 1081,-230 971,-230"/>
</g>
<g id="clust7" class="cluster">
<title>cluster_MetaOptionsModule</title>
<polygon fill="none" stroke="black" stroke-dasharray="1,5" points="144,-70 144,-138 356,-138 356,-70 144,-70"/>
</g>
<g id="clust12" class="cluster">
<title>cluster_MetaOptionsModule_providers</title>
<polygon fill="none" stroke="black" points="152,-78 152,-130 348,-130 348,-78 152,-78"/>
</g>
<!-- MetaOptionsModule -->
<g id="node1" class="node">
<title>MetaOptionsModule</title>
<polygon fill="#8dd3c7" stroke="black" points="316.15,-198 313.15,-202 292.15,-202 289.15,-198 183.85,-198 183.85,-162 316.15,-162 316.15,-198"/>
<text text-anchor="middle" x="250" y="-175.8" font-family="Times,serif" font-size="14.00">MetaOptionsModule</text>
</g>
<!-- AppModule -->
<g id="node5" class="node">
<title>AppModule</title>
<polygon fill="#8dd3c7" stroke="black" points="503.66,-339 500.66,-343 479.66,-343 476.66,-339 420.34,-339 420.34,-303 503.66,-303 503.66,-339"/>
<text text-anchor="middle" x="462" y="-316.8" font-family="Times,serif" font-size="14.00">AppModule</text>
</g>
<!-- MetaOptionsModule&#45;&gt;AppModule -->
<g id="edge1" class="edge">
<title>MetaOptionsModule&#45;&gt;AppModule</title>
<path fill="none" stroke="black" d="M250,-198.14C250,-236.23 250,-321 250,-321 250,-321 410.12,-321 410.12,-321"/>
<polygon fill="black" stroke="black" points="410.12,-324.5 420.12,-321 410.12,-317.5 410.12,-324.5"/>
</g>
<!-- PostsModule -->
<g id="node2" class="node">
<title>PostsModule</title>
<polygon fill="#8dd3c7" stroke="black" points="422.61,-274 419.61,-278 398.61,-278 395.61,-274 333.39,-274 333.39,-238 422.61,-238 422.61,-274"/>
<text text-anchor="middle" x="378" y="-251.8" font-family="Times,serif" font-size="14.00">PostsModule</text>
</g>
<!-- PostsModule&#45;&gt;AppModule -->
<g id="edge2" class="edge">
<title>PostsModule&#45;&gt;AppModule</title>
<path fill="none" stroke="black" d="M422.77,-265C426.07,-265 428.13,-265 428.13,-265 428.13,-265 428.13,-292.97 428.13,-292.97"/>
<polygon fill="black" stroke="black" points="424.63,-292.97 428.13,-302.97 431.63,-292.97 424.63,-292.97"/>
</g>
<!-- TagsModule -->
<g id="node3" class="node">
<title>TagsModule</title>
<polygon fill="#8dd3c7" stroke="black" points="421.26,-198 418.26,-202 397.26,-202 394.26,-198 334.74,-198 334.74,-162 421.26,-162 421.26,-198"/>
<text text-anchor="middle" x="378" y="-175.8" font-family="Times,serif" font-size="14.00">TagsModule</text>
</g>
<!-- TagsModule&#45;&gt;PostsModule -->
<g id="edge7" class="edge">
<title>TagsModule&#45;&gt;PostsModule</title>
<path fill="none" stroke="black" d="M356.31,-198.01C356.31,-198.01 356.31,-227.85 356.31,-227.85"/>
<polygon fill="black" stroke="black" points="352.81,-227.85 356.31,-237.85 359.81,-227.85 352.81,-227.85"/>
</g>
<!-- TagsModule&#45;&gt;AppModule -->
<g id="edge3" class="edge">
<title>TagsModule&#45;&gt;AppModule</title>
<path fill="none" stroke="black" d="M421.35,-180C428.54,-180 433.71,-180 433.71,-180 433.71,-180 433.71,-292.86 433.71,-292.86"/>
<polygon fill="black" stroke="black" points="430.21,-292.86 433.71,-302.86 437.21,-292.86 430.21,-292.86"/>
</g>
<!-- TagsService  -->
<g id="node9" class="node">
<title>TagsService </title>
<polygon fill="#fb8072" stroke="black" points="797.19,-274 708.81,-274 708.81,-238 797.19,-238 797.19,-274"/>
<text text-anchor="middle" x="753" y="-251.8" font-family="Times,serif" font-size="14.00">TagsService </text>
</g>
<!-- TagsModule&#45;&gt;TagsService  -->
<g id="edge10" class="edge">
<title>TagsModule&#45;&gt;TagsService </title>
<path fill="none" stroke="black" stroke-dasharray="5,2" d="M399.69,-198.04C399.69,-210.56 399.69,-225 399.69,-225 399.69,-225 753,-225 753,-225 753,-225 753,-227.97 753,-227.97"/>
<polygon fill="black" stroke="black" points="749.5,-227.97 753,-237.97 756.5,-227.97 749.5,-227.97"/>
</g>
<!-- UsersModule -->
<g id="node4" class="node">
<title>UsersModule</title>
<polygon fill="#8dd3c7" stroke="black" points="530.92,-198 527.92,-202 506.92,-202 503.92,-198 439.08,-198 439.08,-162 530.92,-162 530.92,-198"/>
<text text-anchor="middle" x="485" y="-175.8" font-family="Times,serif" font-size="14.00">UsersModule</text>
</g>
<!-- UsersModule&#45;&gt;PostsModule -->
<g id="edge8" class="edge">
<title>UsersModule&#45;&gt;PostsModule</title>
<path fill="none" stroke="black" d="M455.42,-198.31C455.42,-218.15 455.42,-247 455.42,-247 455.42,-247 432.59,-247 432.59,-247"/>
<polygon fill="black" stroke="black" points="432.59,-243.5 422.59,-247 432.59,-250.5 432.59,-243.5"/>
</g>
<!-- UsersModule&#45;&gt;AppModule -->
<g id="edge4" class="edge">
<title>UsersModule&#45;&gt;AppModule</title>
<path fill="none" stroke="black" d="M471.56,-198.14C471.56,-198.14 471.56,-292.93 471.56,-292.93"/>
<polygon fill="black" stroke="black" points="468.06,-292.92 471.56,-302.93 475.06,-292.93 468.06,-292.92"/>
</g>
<!-- UsersService  -->
<g id="node11" class="node">
<title>UsersService </title>
<polygon fill="#fb8072" stroke="black" points="1072.85,-274 979.15,-274 979.15,-238 1072.85,-238 1072.85,-274"/>
<text text-anchor="middle" x="1026" y="-251.8" font-family="Times,serif" font-size="14.00">UsersService </text>
</g>
<!-- UsersModule&#45;&gt;UsersService  -->
<g id="edge12" class="edge">
<title>UsersModule&#45;&gt;UsersService </title>
<path fill="none" stroke="black" stroke-dasharray="5,2" d="M531.13,-186C661.95,-186 1026,-186 1026,-186 1026,-186 1026,-227.97 1026,-227.97"/>
<polygon fill="black" stroke="black" points="1022.5,-227.97 1026,-237.97 1029.5,-227.97 1022.5,-227.97"/>
</g>
<!-- AppService -->
<g id="node6" class="node">
<title>AppService</title>
<ellipse fill="#fdb462" stroke="black" cx="612" cy="-256" rx="56.74" ry="18"/>
<text text-anchor="middle" x="612" y="-251.8" font-family="Times,serif" font-size="14.00">AppService</text>
</g>
<!-- AppService&#45;&gt;AppModule -->
<g id="edge5" class="edge">
<title>AppService&#45;&gt;AppModule</title>
<path fill="none" stroke="black" d="M555.3,-256C522.52,-256 487.69,-256 487.69,-256 487.69,-256 487.69,-292.89 487.69,-292.89"/>
<polygon fill="black" stroke="black" points="484.19,-292.89 487.69,-302.89 491.19,-292.89 484.19,-292.89"/>
</g>
<!-- MetaOptionsService -->
<g id="node7" class="node">
<title>MetaOptionsService</title>
<ellipse fill="#fdb462" stroke="black" cx="250" cy="-104" rx="90.33" ry="18"/>
<text text-anchor="middle" x="250" y="-99.8" font-family="Times,serif" font-size="14.00">MetaOptionsService</text>
</g>
<!-- MetaOptionsService&#45;&gt;MetaOptionsModule -->
<g id="edge6" class="edge">
<title>MetaOptionsService&#45;&gt;MetaOptionsModule</title>
<path fill="none" stroke="black" d="M250,-122.01C250,-122.01 250,-151.85 250,-151.85"/>
<polygon fill="black" stroke="black" points="246.5,-151.85 250,-161.85 253.5,-151.85 246.5,-151.85"/>
</g>
<!-- PostsService -->
<g id="node8" class="node">
<title>PostsService</title>
<ellipse fill="#fdb462" stroke="black" cx="84" cy="-180" rx="60.27" ry="18"/>
<text text-anchor="middle" x="84" y="-175.8" font-family="Times,serif" font-size="14.00">PostsService</text>
</g>
<!-- PostsService&#45;&gt;PostsModule -->
<g id="edge9" class="edge">
<title>PostsService&#45;&gt;PostsModule</title>
<path fill="none" stroke="black" d="M84,-198.01C84,-220.49 84,-256 84,-256 84,-256 323.35,-256 323.35,-256"/>
<polygon fill="black" stroke="black" points="323.35,-259.5 333.35,-256 323.35,-252.5 323.35,-259.5"/>
</g>
<!-- TagsService -->
<g id="node10" class="node">
<title>TagsService</title>
<ellipse fill="#fdb462" stroke="black" cx="880" cy="-256" rx="58.53" ry="18"/>
<text text-anchor="middle" x="880" y="-251.8" font-family="Times,serif" font-size="14.00">TagsService</text>
</g>
<!-- TagsService&#45;&gt;TagsModule -->
<g id="edge11" class="edge">
<title>TagsService&#45;&gt;TagsModule</title>
<path fill="none" stroke="black" d="M880,-237.85C880,-225.73 880,-212 880,-212 880,-212 378,-212 378,-212 378,-212 378,-208.24 378,-208.24"/>
<polygon fill="black" stroke="black" points="381.5,-208.24 378,-198.24 374.5,-208.24 381.5,-208.24"/>
</g>
<!-- UsersService -->
<g id="node12" class="node">
<title>UsersService</title>
<ellipse fill="#fdb462" stroke="black" cx="1159" cy="-256" rx="61.95" ry="18"/>
<text text-anchor="middle" x="1159" y="-251.8" font-family="Times,serif" font-size="14.00">UsersService</text>
</g>
<!-- UsersService&#45;&gt;UsersModule -->
<g id="edge13" class="edge">
<title>UsersService&#45;&gt;UsersModule</title>
<path fill="none" stroke="black" d="M1159,-237.8C1159,-213.64 1159,-174 1159,-174 1159,-174 540.8,-174 540.8,-174"/>
<polygon fill="black" stroke="black" points="540.8,-170.5 530.8,-174 540.8,-177.5 540.8,-170.5"/>
</g>
</g>
</svg>
